# xmcd
#
# Track frame offsets: 
#        150
#        3268
#        17376
#        39192
#        61412
#        72035
#        88579
#        101731
#        117703
#        139856
#        161275
#        175874
#        207946
#        224181
#
# Disc length: 3179 seconds
#
# Revision: 0
# Processed by: cddbd v1.5.2PL0 Copyright (c) Steve Scherf et al.
# Submitted via: ExactAudioCopy v1.1
#
DISCID=bd0c690e
DTITLE=The Jackson 5 - Live At The Forum [CD1]
DYEAR=1970
DGENRE=Soul
TTITLE0=Introduction
TTITLE1=I Want You Back
TTITLE2=Feelin' Alright
TTITLE3=Who's Lovin' You
TTITLE4=Walk On
TTITLE5=Don't Know Why I Love You
TTITLE6=Zip-A-Dee-Doo-Dah
TTITLE7=ABC
TTITLE8=Intro - It's Your Thing
TTITLE9=I Found That Girl
TTITLE10=There Was A Time
TTITLE11=Intro - Thank You Falettinme Be Mice Elf Agin
TTITLE12=The Love You Save
TTITLE13=Mama's Pearl
EXTD=
EXTT0=
EXTT1=
EXTT2=
EXTT3=
EXTT4=
EXTT5=
EXTT6=
EXTT7=
EXTT8=
EXTT9=
EXTT10=
EXTT11=
EXTT12=
EXTT13=
PLAYORDER=
